<?xml version="1.0" encoding="UTF-8"?>
<svg version="1.1" xmlns="http://www.w3.org/2000/svg" width="852" height="160">
<path d="M0 0 C281.16 0 562.32 0 852 0 C852 52.8 852 105.6 852 160 C570.84 160 289.68 160 0 160 C0 107.2 0 54.4 0 0 Z " fill="#000000" transform="translate(0,0)"/>
<path d="M0 0 C9.24 0 18.48 0 28 0 C29.91425781 5.05441406 29.91425781 5.05441406 31.8671875 10.2109375 C33.10368672 13.46468691 34.34203491 16.71772684 35.58056641 19.97070312 C36.44188061 22.23591724 37.30126365 24.50186662 38.15869141 26.76855469 C39.38981078 30.02212567 40.62779798 33.27300941 41.8671875 36.5234375 C42.25059296 37.54118256 42.63399841 38.55892761 43.02902222 39.60751343 C43.38924469 40.54833771 43.74946716 41.48916199 44.12060547 42.45849609 C44.43593231 43.28900482 44.75125916 44.11951355 45.07614136 44.97518921 C45.93338949 47.16658041 45.93338949 47.16658041 48 49 C48.19378738 48.47461639 48.38757477 47.94923279 48.5872345 47.40792847 C50.61108066 41.92309096 52.63973317 36.44004851 54.67114258 30.95800781 C55.42790275 28.91386504 56.18345039 26.86927293 56.93774414 24.82421875 C58.02429212 21.87900763 59.1152395 18.93545814 60.20703125 15.9921875 C60.54152786 15.0825827 60.87602448 14.17297791 61.22065735 13.23580933 C61.54076279 12.37537018 61.86086823 11.51493103 62.19067383 10.62841797 C62.46825027 9.87785126 62.74582672 9.12728455 63.03181458 8.35397339 C64.20447007 5.50286681 65.62131007 2.75737987 67 0 C75.91 0 84.82 0 94 0 C94 26.4 94 52.8 94 80 C86.74 80 79.48 80 72 80 C71.505 59.21 71.505 59.21 71 38 C64.07 58.79 64.07 58.79 57 80 C50.73 80 44.46 80 38 80 C34.59007488 71.73013488 31.63881385 63.33920542 28.75 54.875 C26.39875 48.006875 26.39875 48.006875 24 41 C23.67 53.87 23.34 66.74 23 80 C15.41 80 7.82 80 0 80 C0 53.6 0 27.2 0 0 Z " fill="#F6DB6E" transform="translate(85,66)"/>
<path d="M0 0 C50.58037897 0 50.58037897 0 62.875 11.125 C70.9743759 19.99858095 73.5031971 30.34260263 73.27734375 41.97265625 C72.76977949 52.54059864 68.65852495 62.79862697 60.82421875 70 C42.50220539 84.78078389 25.07304964 80 0 80 C0 53.6 0 27.2 0 0 Z " fill="#F7DD6E" transform="translate(690,66)"/>
<path d="M0 0 C6.909375 -0.061875 13.81875 -0.12375 20.9375 -0.1875 C23.10046631 -0.21481201 25.26343262 -0.24212402 27.49194336 -0.27026367 C29.2329045 -0.27903685 30.97387186 -0.28667881 32.71484375 -0.29296875 C33.59724731 -0.30831665 34.47965088 -0.32366455 35.38879395 -0.33947754 C44.92001687 -0.34344063 53.12938387 2.20406448 60 9 C64.86719993 14.84772807 65.67369834 20.42751458 65.359375 27.91015625 C64.62352525 34.23686439 62.5769097 39.4230903 58 44 C54.75751272 46.26306321 52.06205291 48 48 48 C49.93788772 51.46938865 51.87680553 54.93819939 53.81665039 58.40649414 C54.79822596 60.16197189 55.77900173 61.91789677 56.75976562 63.67382812 C57.38173828 64.78564453 58.00371094 65.89746094 58.64453125 67.04296875 C59.21534424 68.06414795 59.78615723 69.08532715 60.37426758 70.13745117 C61.44863483 72.02917005 62.56025405 73.90026257 63.7097168 75.74731445 C65 78 65 78 65 80 C57.08 80 49.16 80 41 80 C26 53.94736842 26 53.94736842 26 51 C25.01 51 24.02 51 23 51 C23 60.57 23 70.14 23 80 C15.41 80 7.82 80 0 80 C0 53.6 0 27.2 0 0 Z " fill="#F5DA6D" transform="translate(277,66)"/>
<path d="M0 0 C10.1165625 -0.0928125 10.1165625 -0.0928125 20.4375 -0.1875 C22.54825928 -0.21481201 24.65901855 -0.24212402 26.83374023 -0.27026367 C28.53368561 -0.27903728 30.23363737 -0.28667914 31.93359375 -0.29296875 C32.79440552 -0.30831665 33.65521729 -0.32366455 34.54211426 -0.33947754 C42.91390871 -0.34304152 50.43434425 1.60157194 57 7 C63.10124828 14.07515646 64.36430909 19.04688792 64.27734375 28.41015625 C63.7851754 34.78061699 61.8420556 39.6853395 57 43.9375 C51.09090909 48 51.09090909 48 47 48 C47.43868408 48.75619629 47.87736816 49.51239258 48.3293457 50.29150391 C49.96895161 53.11978616 51.60695 55.94898692 53.24389648 58.77880859 C53.95029365 59.99922791 54.65731422 61.21928663 55.36499023 62.43896484 C56.38693008 64.20053276 57.40655925 65.96342101 58.42578125 67.7265625 C59.03848877 68.78439941 59.65119629 69.84223633 60.2824707 70.93212891 C61.94688917 73.9051328 63.47625192 76.95250385 65 80 C56.75 80 48.5 80 40 80 C34.1875 69.3125 34.1875 69.3125 32.37182617 65.9699707 C31.89205322 65.08913818 31.41228027 64.20830566 30.91796875 63.30078125 C30.43094482 62.40528564 29.9439209 61.50979004 29.44213867 60.5871582 C28.44453584 58.79748541 27.39936708 57.0338099 26.31762695 55.29370117 C25 53 25 53 25 51 C24.01 51 23.02 51 22 51 C22 60.57 22 70.14 22 80 C14.74 80 7.48 80 0 80 C0 53.6 0 27.2 0 0 Z " fill="#F7DD6F" transform="translate(615,66)"/>
<path d="M0 0 C8.58 0 17.16 0 26 0 C31.62610913 13.50266191 31.62610913 13.50266191 33.55541992 18.85083008 C33.98904343 20.04859573 34.42266693 21.24636139 34.86943054 22.48042297 C35.32324247 23.74341146 35.77691867 25.00644871 36.23046875 26.26953125 C36.71158407 27.60331557 37.19289609 28.93702894 37.6743927 30.27067566 C38.67373776 33.04069399 39.6710308 35.81143928 40.66674805 38.58276367 C41.93732503 42.11870017 43.21266115 45.65289776 44.48946667 49.18658924 C45.48037699 51.93043499 46.46900474 54.6750988 47.45693398 57.42001915 C47.92632185 58.7234885 48.39634959 60.02672763 48.86705589 61.32972145 C49.52456867 63.15104147 50.17872695 64.97357142 50.83276367 66.79614258 C51.20406906 67.82806229 51.57537445 68.85998199 51.95793152 69.923172 C53.08345594 73.24641333 54.03609528 76.62633347 55 80 C47.08 80 39.16 80 31 80 C28 70 28 70 28 67 C18.43 67.33 8.86 67.66 -1 68 C-2.32 71.96 -3.64 75.92 -5 80 C-12.92 80 -20.84 80 -29 80 C-20.27931828 53.00741371 -10.18115915 26.47101379 0 0 Z " fill="#F7DC6E" transform="translate(215,66)"/>
<path d="M0 0 C8.91 0 17.82 0 27 0 C28.0058313 2.80600708 28.0058313 2.80600708 29.03198242 5.66870117 C31.26589492 11.89962165 33.50120001 18.13004119 35.73742199 24.36013317 C37.09111143 28.13165441 38.4442682 31.90336486 39.79614258 35.67553711 C41.10459348 39.32647848 42.41452847 42.97688441 43.72542763 46.6269474 C44.22142045 48.00876815 44.71690819 49.39077032 45.21184349 50.7729702 C48.05119502 58.70121046 50.96814151 66.58233534 54.10029602 74.40010071 C55 77 55 77 55 80 C47.41 80 39.82 80 32 80 C29 73 29 73 28 67 C18.43 67.33 8.86 67.66 -1 68 C-2.32 71.96 -3.64 75.92 -5 80 C-12.59 80 -20.18 80 -28 80 C-26.74928772 74.37179475 -25.65153224 69.60702336 -23.70922852 64.32202148 C-23.25858536 63.08721542 -22.8079422 61.85240936 -22.34364319 60.58018494 C-21.8555264 59.26044021 -21.36727753 57.94074432 -20.87890625 56.62109375 C-20.37279632 55.24082579 -19.86718505 53.86037489 -19.36204529 52.47975159 C-18.0382865 48.86593601 -16.70768219 45.25467903 -15.37561035 41.6439209 C-14.02670587 37.98359234 -12.68461448 34.320768 -11.34179688 30.65820312 C-7.58890378 20.42835089 -3.82604694 10.20279184 0 0 Z " fill="#F7DC6E" transform="translate(552,66)"/>
<path d="M0 0 C5.37084186 2.98836516 8.56954498 7.42512697 10.54296875 13.19921875 C11.58060763 19.82414389 10.6229513 23.03925364 7.54296875 29.19921875 C12.82296875 29.19921875 18.10296875 29.19921875 23.54296875 29.19921875 C23.54296875 35.13921875 23.54296875 41.07921875 23.54296875 47.19921875 C16.61296875 47.19921875 9.68296875 47.19921875 2.54296875 47.19921875 C2.54296875 67.65921875 2.54296875 88.11921875 2.54296875 109.19921875 C-5.04703125 109.19921875 -12.63703125 109.19921875 -20.45703125 109.19921875 C-20.45703125 88.73921875 -20.45703125 68.27921875 -20.45703125 47.19921875 C-27.38703125 47.19921875 -34.31703125 47.19921875 -41.45703125 47.19921875 C-41.45703125 41.25921875 -41.45703125 35.31921875 -41.45703125 29.19921875 C-36.50703125 29.19921875 -31.55703125 29.19921875 -26.45703125 29.19921875 C-27.11703125 27.54921875 -27.77703125 25.89921875 -28.45703125 24.19921875 C-29.19514124 17.70001654 -28.91487958 11.88793697 -25.45703125 6.19921875 C-18.50716531 -1.04638617 -9.81533545 -3.1989567 0 0 Z " fill="#F2D86C" transform="translate(389.45703125,36.80078125)"/>
<path d="M0 0 C5.94401078 4.89064178 10.05451367 10.94220617 12.5625 18.1875 C12.5625 19.5075 12.5625 20.8275 12.5625 22.1875 C8.66723501 22.3621354 4.7729781 22.46846492 0.875 22.5625 C-0.77918945 22.63791016 -0.77918945 22.63791016 -2.46679688 22.71484375 C-10.52808663 22.86096985 -10.52808663 22.86096985 -13.18212891 20.89550781 C-14.45703125 19.2890625 -14.45703125 19.2890625 -16.4375 16.1875 C-20.91947349 13.12275133 -26.22647135 13.59000905 -31.4375 14.1875 C-35.63950719 16.09750327 -38.59490453 18.63643232 -40.7421875 22.8046875 C-42.74468452 29.66717728 -42.7465356 38.2617665 -39.875 44.875 C-37.51170413 48.65462649 -34.70837281 50.89084032 -30.4375 52.1875 C-25.33488115 52.96380968 -21.63354355 52.7963949 -17 50.4375 C-14.42531189 48.3964658 -14.42531189 48.3964658 -13.1237793 46.07128906 C-11.4375 44.1875 -11.4375 44.1875 -8.89379883 43.73339844 C-7.90404053 43.7543457 -6.91428223 43.77529297 -5.89453125 43.796875 C-4.82138672 43.80976562 -3.74824219 43.82265625 -2.64257812 43.8359375 C-1.52302734 43.86945313 -0.40347656 43.90296875 0.75 43.9375 C1.88115234 43.95554688 3.01230469 43.97359375 4.17773438 43.9921875 C6.97350376 44.03937348 9.76757972 44.10519405 12.5625 44.1875 C10.05498477 55.09576901 5.93144519 62.25066373 -3.61328125 68.55859375 C-14.16636215 74.64522547 -27.81742986 74.95571952 -39.63671875 72.53125 C-49.30677053 69.00934731 -56.62020538 62.17152213 -61.4375 53.1875 C-66.46655295 42.37996661 -67.46211733 28.85897422 -63.47265625 17.55859375 C-58.37792952 5.88878573 -51.61273566 -0.83689833 -39.953125 -5.8671875 C-26.4885828 -10.92684466 -11.65424637 -8.04120969 0 0 Z " fill="#F6DB6E" transform="translate(505.4375,72.8125)"/>
<path d="M0 0 C5.73032641 3.60798329 8.84474 8.65819512 11 15 C11 16.98 11 18.96 11 21 C2.75 21 -5.5 21 -14 21 C-14.66 19.02 -15.32 17.04 -16 15 C-19.40320934 14.32326553 -19.40320934 14.32326553 -23 14 C-25.26313679 15.87947452 -25.26313679 15.87947452 -25.5 18.875 C-25.32805809 22.19245698 -25.32805809 22.19245698 -22.5234375 23.984375 C-18.62941559 26.4011556 -14.42304825 27.8411937 -10.125 29.375 C-0.90205254 32.81806048 7.36937114 36.73874229 12 46 C12.66427484 53.68816448 12.88993696 60.71095926 8 67 C1.94695462 73.92183542 -5.3386284 77.43833066 -14.46484375 78.34375 C-26.26473536 78.65123903 -36.24095205 76.3094685 -45 68 C-48.87430597 62.49761489 -50 58.80852869 -50 52 C-42.08 52 -34.16 52 -26 52 C-25.34 53.98 -24.68 55.96 -24 58 C-21.01405576 59.49297212 -18.29146376 59.11755228 -15 59 C-14.34 58.67 -13.68 58.34 -13 58 C-13 55.69 -13 53.38 -13 51 C-18.40864533 48.13085406 -23.80239515 45.64969093 -29.5625 43.5625 C-38.40458965 40.21543541 -45.00560418 36.82095744 -49 28 C-50.96211791 22.11364627 -51.016986 15.39764423 -48.4375 9.6875 C-45.07690959 3.84247311 -39.18138304 -0.88414177 -32.859375 -3.1015625 C-22.10094015 -5.60605644 -9.83447942 -5.30221933 0 0 Z " fill="#F5DA6D" transform="translate(821,69)"/>
<path d="M0 0 C5.73032641 3.60798329 8.84474 8.65819512 11 15 C11 16.98 11 18.96 11 21 C2.75 21 -5.5 21 -14 21 C-14.66 19.02 -15.32 17.04 -16 15 C-19.40320934 14.32326553 -19.40320934 14.32326553 -23 14 C-25.26313679 15.87947452 -25.26313679 15.87947452 -25.5 18.875 C-25.32805809 22.19245698 -25.32805809 22.19245698 -22.5234375 23.984375 C-18.62941559 26.4011556 -14.42304825 27.8411937 -10.125 29.375 C-0.90205254 32.81806048 7.36937114 36.73874229 12 46 C12.66427484 53.68816448 12.88993696 60.71095926 8 67 C1.94695462 73.92183542 -5.3386284 77.43833066 -14.46484375 78.34375 C-26.26473536 78.65123903 -36.24095205 76.3094685 -45 68 C-48.87430597 62.49761489 -50 58.80852869 -50 52 C-42.08 52 -34.16 52 -26 52 C-25.34 53.98 -24.68 55.96 -24 58 C-21.01405576 59.49297212 -18.29146376 59.11755228 -15 59 C-14.34 58.67 -13.68 58.34 -13 58 C-13 55.69 -13 53.38 -13 51 C-18.40864533 48.13085406 -23.80239515 45.64969093 -29.5625 43.5625 C-38.40458965 40.21543541 -45.00560418 36.82095744 -49 28 C-50.96211791 22.11364627 -51.016986 15.39764423 -48.4375 9.6875 C-45.07690959 3.84247311 -39.18138304 -0.88414177 -32.859375 -3.1015625 C-22.10094015 -5.60605644 -9.83447942 -5.30221933 0 0 Z " fill="#F5DA6D" transform="translate(63,69)"/>
<path d="M0 0 C17.6746988 0 17.6746988 0 24.7265625 6.62109375 C29.32711948 12.59667753 28.77796106 19.81882097 28 27 C26.84105609 32.16658964 24.04315021 35.63070816 20 39 C15 41 15 41 0 41 C0 27.47 0 13.94 0 0 Z " fill="#020201" transform="translate(712,85)"/>
<path d="M0 0 C0.7734375 -0.00257812 1.546875 -0.00515625 2.34375 -0.0078125 C4.5 0.125 4.5 0.125 7.5 1.125 C7.5 1.785 7.5 2.445 7.5 3.125 C8.2425 3.310625 8.985 3.49625 9.75 3.6875 C13.54015513 5.66871746 15.18493403 8.16573722 16.5 12.125 C17.23426036 17.30932316 17.26243685 21.56962882 14.9375 26.3125 C11.68103744 28.73397216 9.4597092 28.50574127 5.5 28.125 C6.22123047 27.54298828 6.22123047 27.54298828 6.95703125 26.94921875 C8.95749498 24.58411353 8.98876068 22.99808547 9.1875 19.9375 C9.25324219 19.03644531 9.31898438 18.13539062 9.38671875 17.20703125 C9.42410156 16.51996094 9.46148437 15.83289062 9.5 15.125 C8.91347656 15.46402344 8.32695312 15.80304687 7.72265625 16.15234375 C4.49305346 17.56564972 1.91772577 16.68426422 -1.5 16.125 C-2.49 16.455 -3.48 16.785 -4.5 17.125 C-7.1875 16.1875 -7.1875 16.1875 -9.5 15.125 C-9.38557539 16.72995567 -9.25805306 18.33398119 -9.125 19.9375 C-9.05539062 20.83082031 -8.98578125 21.72414063 -8.9140625 22.64453125 C-8.63354964 25.36898499 -8.63354964 25.36898499 -6.5 28.125 C-9.8125 28.375 -9.8125 28.375 -13.5 28.125 C-16.99397343 24.86395813 -17.3476712 21.4451829 -17.875 16.875 C-17.2661329 10.78632899 -14.29500857 6.79179367 -9.875 2.6875 C-6.51657669 0.47801098 -3.93285929 -0.01310953 0 0 Z " fill="#060502" transform="translate(380.5,37.875)"/>
<path d="M0 0 C3.5578125 -0.12375 3.5578125 -0.12375 7.1875 -0.25 C7.92508545 -0.28641602 8.6626709 -0.32283203 9.42260742 -0.36035156 C12.94632881 -0.41935784 14.91269077 -0.0522699 17.94921875 1.765625 C20.09182428 4.10004473 20.68560009 4.89727521 20.625 8 C20.63789062 8.66 20.65078125 9.32 20.6640625 10 C19.59157333 13.23008503 17.8823161 14.27442798 15 16 C12.20704934 16.28942494 9.94329617 16.38605897 7.1875 16.25 C4.815625 16.1675 2.44375 16.085 0 16 C0 10.72 0 5.44 0 0 Z " fill="#030301" transform="translate(637,85)"/>
<path d="M0 0 C3.58875 -0.0928125 3.58875 -0.0928125 7.25 -0.1875 C8.37003418 -0.22846802 8.37003418 -0.22846802 9.51269531 -0.27026367 C12.54495565 -0.30818732 14.73043482 -0.13564108 17.453125 1.234375 C19.37905245 3.43265583 19.53908469 4.54034761 19.5 7.4375 C19.5103125 8.19933594 19.520625 8.96117188 19.53125 9.74609375 C18.77105721 12.97132346 17.70620598 14.09100438 15 16 C12.2317375 16.29449601 9.98597978 16.38343363 7.25 16.25 C4.8575 16.1675 2.465 16.085 0 16 C0 10.72 0 5.44 0 0 Z " fill="#010100" transform="translate(300,85)"/>
<path d="M0 0 C2.2534872 2.2534872 2.73648451 3.71974454 3.7265625 6.71875 C4.0359375 7.65074219 4.3453125 8.58273438 4.6640625 9.54296875 C4.98117187 10.51878906 5.29828125 11.49460937 5.625 12.5 C5.94984375 13.47582031 6.2746875 14.45164062 6.609375 15.45703125 C9 22.71930804 9 22.71930804 9 25 C3.39 25 -2.22 25 -8 25 C-6.87613072 19.17631373 -5.3072912 13.62007724 -3.4375 8 C-3.21553955 7.3289624 -2.9935791 6.6579248 -2.76489258 5.96655273 C-1.12932926 1.12932926 -1.12932926 1.12932926 0 0 Z " fill="#0E0C06" transform="translate(565,91)"/>
<path d="M0 0 C0.66 0 1.32 0 2 0 C4.64 8.25 7.28 16.5 10 25 C4.39 25 -1.22 25 -7 25 C-5.53214927 16.32633657 -2.89214088 8.27902924 0 0 Z " fill="#0E0C06" transform="translate(227,91)"/>
<path d="M0 0 C5.3484929 2.97593008 8.61559264 7.42613915 10.54296875 13.19921875 C10.90599559 16.58432621 10.86107868 19.81311526 10.54296875 23.19921875 C8.40583961 20.58458392 7.15552009 18.5714365 6.48046875 15.26171875 C6.320625 14.56949219 6.16078125 13.87726562 5.99609375 13.1640625 C5.8465625 12.51566406 5.69703125 11.86726563 5.54296875 11.19921875 C4.86303448 8.36846327 4.86303448 8.36846327 3.54296875 6.19921875 C1.01923974 4.8384384 1.01923974 4.8384384 -1.45703125 4.19921875 C-1.45703125 3.53921875 -1.45703125 2.87921875 -1.45703125 2.19921875 C-11.71349112 1.54930248 -11.71349112 1.54930248 -20.45703125 6.19921875 C-22.36610841 8.75114842 -23.9728 11.3812313 -25.45703125 14.19921875 C-26.11703125 13.86921875 -26.77703125 13.53921875 -27.45703125 13.19921875 C-27.45703125 9.83408369 -26.99646088 7.79428461 -24.71484375 5.27734375 C-17.54684705 -1.07670461 -9.45424705 -3.08127289 0 0 Z " fill="#DBC362" transform="translate(389.45703125,36.80078125)"/>
<path d="M0 0 C2.00546689 0.29868656 4.00577205 0.63371323 6 1 C6.66 1 7.32 1 8 1 C7.66009204 4.05917167 7.14301602 5.80401508 5.3125 8.3125 C2.37575119 10.45553291 0.55482252 10.32316568 -3 10 C-3.66 8.68 -4.32 7.36 -5 6 C-5.66 6 -6.32 6 -7 6 C-7 4.35 -7 2.7 -7 1 C-5.5459375 1.0309375 -5.5459375 1.0309375 -4.0625 1.0625 C-1.12534105 1.35618499 -1.12534105 1.35618499 0 0 Z " fill="#100E07" transform="translate(380,56)"/>
<path d="M0 0 C3.96 0 7.92 0 12 0 C12 0.99 12 1.98 12 3 C8.37 3 4.74 3 1 3 C0.67 2.01 0.34 1.02 0 0 Z " fill="#D2BC5E" transform="translate(344,56)"/>
<path d="M0 0 C0.99 0.33 1.98 0.66 3 1 C3 4.63 3 8.26 3 12 C2.01 12 1.02 12 0 12 C0 8.04 0 4.08 0 0 Z " fill="#D6BF60" transform="translate(379,21)"/>
<path d="M0 0 C3.63 0 7.26 0 11 0 C11 0.99 11 1.98 11 3 C7.37 3 3.74 3 0 3 C0 2.01 0 1.02 0 0 Z " fill="#D5BE5F" transform="translate(405,56)"/>
<path d="M0 0 C-0.57889381 3.28754511 -1.54828411 4.93672495 -3.9375 7.25 C-4.46214844 7.77078125 -4.98679687 8.2915625 -5.52734375 8.828125 C-7 10 -7 10 -9 10 C-8.42110619 6.71245489 -7.45171589 5.06327505 -5.0625 2.75 C-4.53785156 2.22921875 -4.01320313 1.7084375 -3.47265625 1.171875 C-2 0 -2 0 0 0 Z " fill="#D1BB5D" transform="translate(406,31)"/>
<path d="M0 0 C0.66 0 1.32 0 2 0 C3.68732277 1.98260426 5.35366057 3.9832342 7 6 C7.66 6.33 8.32 6.66 9 7 C8.67 7.99 8.34 8.98 8 10 C6.84481082 9.09515208 5.70114594 8.1755794 4.5625 7.25 C3.60537109 6.48429687 3.60537109 6.48429687 2.62890625 5.703125 C0.81189446 3.80332371 0.39576803 2.56413092 0 0 Z " fill="#E5CC66" transform="translate(355,31)"/>
<path d="M0 0 C0.33 0.99 0.66 1.98 1 3 C-0.4375 5.1875 -0.4375 5.1875 -2 7 C-2.33 5.35 -2.66 3.7 -3 2 C-2.01 1.34 -1.02 0.68 0 0 Z " fill="#E0C864" transform="translate(365,44)"/>
</svg>
